<svg width="34" height="34" viewBox="0 0 34 34" fill="none" xmlns="http://www.w3.org/2000/svg">
<path d="M7.08333 29.75H26.9167C28.4815 29.75 29.75 28.4815 29.75 26.9167V7.08333C29.75 5.51853 28.4815 4.25 26.9167 4.25H7.08333C5.51853 4.25 4.25 5.51853 4.25 7.08333V26.9167C4.25 28.4815 5.51853 29.75 7.08333 29.75ZM7.08333 29.75L22.6667 14.1667L29.75 21.25M14.1667 12.0417C14.1667 13.2153 13.2153 14.1667 12.0417 14.1667C10.8681 14.1667 9.91667 13.2153 9.91667 12.0417C9.91667 10.8681 10.8681 9.91667 12.0417 9.91667C13.2153 9.91667 14.1667 10.8681 14.1667 12.0417Z" stroke="white" stroke-width="2" stroke-linecap="round" stroke-linejoin="round"/>
</svg>
