<svg width="34" height="35" viewBox="0 0 34 35" fill="none" xmlns="http://www.w3.org/2000/svg">
<path fill-rule="evenodd" clip-rule="evenodd" d="M2.51281 0.989746C1.12545 0.989746 0 2.08093 0 3.42526V32.555C0 33.8995 1.12559 34.9897 2.51281 34.9897H31.4872C32.8751 34.9897 34 33.8994 34 32.5546V3.42526C34 2.08093 32.8751 0.989746 31.4872 0.989746H2.51281ZM10.3323 14.1363V29.4432H5.2445V14.1363H10.3323ZM10.6676 9.40242C10.6676 10.8713 9.5633 12.0467 7.78945 12.0467L7.78905 12.0466H7.75612C6.04855 12.0466 4.94461 10.8712 4.94461 9.40229C4.94461 7.90005 6.08188 6.75746 7.82319 6.75746C9.5633 6.75746 10.6344 7.90005 10.6676 9.40242ZM18.2358 29.4432H13.1484L13.1483 29.4437C13.1483 29.4437 13.2151 15.5728 13.1487 14.1368H18.2362V16.3034C18.9125 15.2606 20.1229 13.7774 22.8216 13.7774C26.1688 13.7774 28.6785 15.9652 28.6785 20.6666V29.4432H23.5912V21.2553C23.5912 19.1973 22.8545 17.7938 21.014 17.7938C19.6082 17.7938 18.7711 18.7403 18.4034 19.6547C18.269 19.9811 18.2358 20.4391 18.2358 20.896V29.4432Z" fill="white"/>
</svg>
