<svg width="34" height="35" viewBox="0 0 34 35" fill="none" xmlns="http://www.w3.org/2000/svg">
<path d="M21.3208 8.07292C22.7045 8.34288 23.9762 9.01961 24.9731 10.0165C25.97 11.0134 26.6467 12.285 26.9167 13.6687M21.3208 2.40625C24.1956 2.72562 26.8764 4.013 28.923 6.05701C30.9696 8.10102 32.2603 10.7802 32.5833 13.6546M31.1667 24.9596V29.2096C31.1683 29.6041 31.0874 29.9947 30.9294 30.3562C30.7713 30.7177 30.5395 31.0422 30.2488 31.3089C29.958 31.5756 29.6148 31.7787 29.241 31.9051C28.8673 32.0315 28.4713 32.0784 28.0783 32.0429C23.719 31.5692 19.5316 30.0796 15.8525 27.6937C12.4296 25.5187 9.52755 22.6167 7.35249 19.1938C4.95829 15.498 3.46833 11.2902 3.00332 6.91125C2.96792 6.51949 3.01448 6.12466 3.14003 5.75188C3.26558 5.37911 3.46738 5.03656 3.73257 4.74605C3.99776 4.45553 4.32054 4.22342 4.68036 4.06449C5.04017 3.90556 5.42914 3.82329 5.82249 3.82292H10.0725C10.76 3.81615 11.4265 4.05961 11.9478 4.50792C12.4691 4.95623 12.8096 5.5788 12.9058 6.25958C13.0852 7.61968 13.4179 8.95511 13.8975 10.2404C14.0881 10.7475 14.1293 11.2985 14.0164 11.8283C13.9034 12.3581 13.6409 12.8444 13.26 13.2296L11.4608 15.0287C13.4775 18.5754 16.4141 21.512 19.9608 23.5287L21.76 21.7296C22.1452 21.3487 22.6315 21.0862 23.1612 20.9732C23.691 20.8602 24.2421 20.9015 24.7492 21.0921C26.0345 21.5717 27.3699 21.9044 28.73 22.0837C29.4182 22.1808 30.0466 22.5275 30.4959 23.0577C30.9452 23.5879 31.1839 24.2648 31.1667 24.9596Z" stroke="white" stroke-width="2" stroke-linecap="round" stroke-linejoin="round"/>
</svg>
