<svg xmlns="http://www.w3.org/2000/svg" viewBox="0 0 262.01 197.62"><defs><style>.cls-1{fill:#00a7ff;}</style></defs><title>Artboard 4</title><g id="Icons"><g id="Ps"><path class="cls-1" d="M0,3.25C0,1.77.59.89,2.07.89,13.29.59,35.15,0,56.72,0c57.3,0,78.57,31.9,78.57,64.4,0,47-36.33,67.35-80.94,67.35H35.74V192.3c0,1.48-.59,2.36-2.36,2.36h-31c-1.47,0-2.36-.59-2.36-2.06Zm35.74,96.89c5,.29,8.86.29,18.61.29,24.82,0,45.79-8.27,45.79-35.15C100.14,43.72,84.78,31,57.6,31c-10.34,0-18.61.29-21.86.59Z"/><path class="cls-1" d="M214.45,74.73c-15.66,0-21,6.5-21,12.71,0,6.5,4.43,10.93,23.33,18.31,33.68,12.41,45.2,25.7,45.2,46.67,0,27.77-21.86,45.2-58.19,45.2-17.43,0-32.79-3.25-41.65-8.27-1.48-.89-2.07-1.48-2.07-3.25V158a1.53,1.53,0,0,1,2.36-1.48c12.7,8.27,28.95,11.82,42.24,11.82,15.36,0,22.75-5.32,22.75-13,0-7.39-5.61-12.11-23.93-19.5-32.2-11.81-43.72-25.11-43.72-46.38,0-22.45,18.32-43.42,55.24-43.42,17.13,0,30.13,2.36,37.22,5.91A3.59,3.59,0,0,1,254,55.53v26c0,1.48-.88,2.36-2.66,1.77C242.22,78.28,227.45,74.73,214.45,74.73Z"/></g></g></svg>