<svg xmlns="http://www.w3.org/2000/svg" viewBox="0 0 305.11 213.27"><defs><style>.cls-1{fill:#ff40f0;}</style></defs><title>Artboard 4 copy 2</title><g id="Icons"><g id="Xd"><path class="cls-1" d="M106.61,110.48l59.67,96.89c1.18,1.47.29,2.66-1.18,2.95H128.76c-2.36,0-3.54-.59-4.43-2.36-14.18-24.23-28.65-48.74-43.12-74.15h-.3C67.62,158.63,53.73,183.73,39.85,208c-.89,1.77-1.77,2.36-3.54,2.36H1.74c-2.06,0-2.06-1.77-1.18-2.95l57.9-94.53L1.74,18.91a1.63,1.63,0,0,1,1.48-2.66h36c1.77,0,2.66.29,3.54,2.06,13,24.52,27.77,48.74,41.06,73.26h.3c13-24.52,26.88-48.74,40.47-73a3.32,3.32,0,0,1,3.54-2.36h33.09c1.77,0,2.07,1.18,1.18,2.95Z"/><path class="cls-1" d="M171.89,138.84c0-42.84,31.9-77.1,83.89-77.1a102.16,102.16,0,0,1,12.7.88V2.07c0-1.48.6-2.07,1.78-2.07h32.2c1.47,0,1.47.59,1.47,1.77V180.19c0,5.91.59,13.59,1.18,18.91a2.29,2.29,0,0,1-1.77,2.65,139.9,139.9,0,0,1-55.83,11.52C204.68,213.27,171.89,188.46,171.89,138.84Zm96.59-45.2a39.17,39.17,0,0,0-13.88-2.07c-26.29,0-46.08,16.84-46.08,45.49,0,32.2,19.2,45.49,42.83,45.49a54.64,54.64,0,0,0,17.13-2.36Z"/></g></g></svg>