<?xml version="1.0" encoding="UTF-8"?>
<!DOCTYPE svg PUBLIC "-//W3C//DTD SVG 1.1//EN" "http://www.w3.org/Graphics/SVG/1.1/DTD/svg11.dtd">
<svg xmlns="http://www.w3.org/2000/svg" version="1.1" width="1612px" height="1014px" style="shape-rendering:geometricPrecision; text-rendering:geometricPrecision; image-rendering:optimizeQuality; fill-rule:evenodd; clip-rule:evenodd" xmlns:xlink="http://www.w3.org/1999/xlink">
<g><path style="opacity:0.984" fill="#cd6699" d="M 726.5,24.5 C 776.12,21.7438 824.453,28.2438 871.5,44C 956.133,75.4137 989.633,135.58 972,224.5C 963.098,260.298 947.765,292.965 926,322.5C 880.661,381.941 822.161,422.775 750.5,445C 690.903,464.624 630.236,470.957 568.5,464C 531.153,458.75 500.32,441.916 476,413.5C 469.348,404.541 465.682,394.541 465,383.5C 467.663,377.726 471.496,376.56 476.5,380C 495.374,400.775 518.707,413.775 546.5,419C 582.401,424.549 618.067,423.216 653.5,415C 735.885,398.412 805.051,359.245 861,297.5C 881.071,274.031 895.404,247.364 904,217.5C 915.86,171.298 900.36,138.465 857.5,119C 830.37,108.68 802.536,103.18 774,102.5C 722.438,102.282 671.604,110.115 621.5,126C 525.108,158.571 437.442,206.238 358.5,269C 329.928,292.56 306.094,320.06 287,351.5C 254.599,410.382 260.266,465.049 304,515.5C 313.167,524.667 322.333,533.833 331.5,543C 365.545,570.714 399.878,598.047 434.5,625C 445.651,635.318 456.651,645.818 467.5,656.5C 509.833,633.333 552.167,610.167 594.5,587C 616.874,555.618 645.541,531.951 680.5,516C 725.618,501.225 748.952,517.558 750.5,565C 749.96,573.947 749.126,582.781 748,591.5C 759.94,582.39 772.107,582.223 784.5,591C 787.106,592.938 788.939,595.438 790,598.5C 790.717,604.225 790.384,609.891 789,615.5C 777.588,655.482 767.588,695.815 759,736.5C 757.804,743.958 756.971,751.458 756.5,759C 756.506,764.055 757.339,768.889 759,773.5C 761.575,770.681 763.908,767.681 766,764.5C 789.033,718.769 810.7,672.435 831,625.5C 849.113,585.161 866.446,544.494 883,503.5C 885.355,493.413 888.022,483.413 891,473.5C 898.04,467.687 906.206,464.52 915.5,464C 929.18,462.071 942.846,462.071 956.5,464C 963.885,465.223 968.552,469.39 970.5,476.5C 964.733,492.901 959.9,509.567 956,526.5C 951.125,561.389 957.458,594.056 975,624.5C 999.109,585.293 1021.44,544.96 1042,503.5C 1045.61,495.279 1048.94,486.946 1052,478.5C 1054.98,463.882 1058.98,449.549 1064,435.5C 1069.61,430.736 1076.11,427.903 1083.5,427C 1099.86,423.824 1116.2,423.824 1132.5,427C 1138.4,428.734 1142.07,432.567 1143.5,438.5C 1137.55,454.848 1132.72,471.514 1129,488.5C 1125.66,512.635 1127.66,536.301 1135,559.5C 1141.56,573.623 1148.39,587.623 1155.5,601.5C 1156.36,602.583 1157.36,602.749 1158.5,602C 1216.46,574.882 1276.46,569.216 1338.5,585C 1378.84,596.394 1410.34,619.561 1433,654.5C 1450.23,683.47 1454.23,713.803 1445,745.5C 1434.44,769.727 1416.94,786.894 1392.5,797C 1388.55,798.184 1384.55,798.518 1380.5,798C 1377.71,795.79 1376.88,792.956 1378,789.5C 1385.5,784 1393,778.5 1400.5,773C 1421.11,753.736 1427.28,730.569 1419,703.5C 1409.15,677.291 1391.99,657.458 1367.5,644C 1341.07,630.725 1313.07,623.059 1283.5,621C 1244.89,617.237 1207.23,622.07 1170.5,635.5C 1173.83,645.665 1176.66,655.999 1179,666.5C 1184.03,692.739 1178.03,716.072 1161,736.5C 1134.32,766.426 1101.16,784.759 1061.5,791.5C 1040.61,790.29 1029.95,779.124 1029.5,758C 1031.4,736.638 1037.9,716.805 1049,698.5C 1064.45,674.876 1082.95,653.876 1104.5,635.5C 1087.13,604.229 1075.63,570.895 1070,535.5C 1047.49,580.457 1021.99,623.457 993.5,664.5C 1008.18,693.265 1011.68,723.265 1004,754.5C 997.12,773.386 985.62,788.886 969.5,801C 941.001,820.889 909.334,831.722 874.5,833.5C 866.03,833.61 858.03,831.777 850.5,828C 839.772,817.991 838.605,806.824 847,794.5C 867.911,767.585 889.578,741.251 912,715.5C 920.337,704.812 928.171,693.812 935.5,682.5C 927.395,665.29 919.562,647.957 912,630.5C 906.214,611.69 901.214,592.69 897,573.5C 864.489,656.853 825.822,737.187 781,814.5C 773.947,824.559 765.78,833.726 756.5,842C 741.394,854.828 726.561,854.662 712,841.5C 704.293,830.048 699.96,817.381 699,803.5C 698.307,786.448 698.64,769.448 700,752.5C 686.975,785.883 671.308,817.883 653,848.5C 636.869,868.734 616.702,873.9 592.5,864C 584.285,858.786 577.785,851.952 573,843.5C 547.125,796.239 540.125,746.239 552,693.5C 554.329,679.682 557.829,666.182 562.5,653C 562.167,652.5 561.833,652 561.5,651.5C 538.009,664.076 515.009,677.409 492.5,691.5C 501.418,710.503 506.584,730.503 508,751.5C 513.44,844.81 476.273,914.976 396.5,962C 350.499,986.636 302.499,991.636 252.5,977C 233.914,965.389 221.747,948.889 216,927.5C 206.144,878.924 217.81,836.257 251,799.5C 268.02,781.47 286.52,765.303 306.5,751C 342.879,725.803 380.879,703.136 420.5,683C 413.5,677.333 406.5,671.667 399.5,666C 366.167,642.667 332.833,619.333 299.5,596C 273.184,576.028 248.351,554.194 225,530.5C 204.813,508.812 189.146,484.146 178,456.5C 168.724,430.751 168.057,404.751 176,378.5C 185.449,348.935 199.116,321.602 217,296.5C 250.246,251.92 289.413,213.42 334.5,181C 427.599,114.792 529.599,66.7916 640.5,37C 669.03,30.8534 697.697,26.6867 726.5,24.5 Z M 704.5,561.5 C 708.676,561.168 712.176,562.502 715,565.5C 715.667,569.833 715.667,574.167 715,578.5C 709.029,606.415 701.029,633.748 691,660.5C 678.587,693.405 665.587,726.072 652,758.5C 647.422,767.995 642.089,776.995 636,785.5C 631.384,790.982 626.717,791.315 622,786.5C 617.726,778.344 615.06,769.678 614,760.5C 609.339,711.805 619.006,666.138 643,623.5C 649.166,612.497 655.833,601.83 663,591.5C 673.723,576.917 687.556,566.917 704.5,561.5 Z M 1122.5,661.5 C 1133.21,704.411 1117.71,733.745 1076,749.5C 1074.27,748.534 1073.43,747.034 1073.5,745C 1080.75,711.649 1097.08,683.816 1122.5,661.5 Z M 450.5,710.5 C 466.615,766.411 455.782,816.745 418,861.5C 398.595,883.449 375.095,899.283 347.5,909C 335.883,912.421 324.216,913.421 312.5,912C 302.433,909.6 295.933,903.434 293,893.5C 289.893,875.469 292.226,858.136 300,841.5C 308.247,824.164 319.081,808.664 332.5,795C 357.728,772.726 384.395,752.393 412.5,734C 425.398,726.392 438.065,718.559 450.5,710.5 Z M 953.5,718.5 C 954.155,726.952 952.655,735.286 949,743.5C 942.041,756.461 932.874,767.628 921.5,777C 914.14,783.014 906.14,788.014 897.5,792C 895.5,792.667 893.5,792.667 891.5,792C 913.505,768.507 934.171,744.007 953.5,718.5 Z"/></g>
</svg>
