<svg xmlns="http://www.w3.org/2000/svg" viewBox="0 0 236.68 207.07"><defs><style>.cls-1{fill:#eea808;}</style></defs><title>Artboard 4 copy</title><g id="Icons"><g id="Ai"><path class="cls-1" d="M51.18,156,34.93,204.71a2.93,2.93,0,0,1-3.25,2.36H2.14c-1.77,0-2.36-.88-2.07-2.95L60.92,31c1.19-3,2.07-5.91,2.66-16,0-1.18.59-2.06,1.77-2.06h41.06c1.48,0,1.78.29,2.07,1.77l68.24,189.64c.29,1.78,0,2.66-1.77,2.66H141.86a3,3,0,0,1-3-1.77L121.78,156Zm61.14-32.2c-6.2-19.5-20.08-60.56-26-81.23H86c-4.72,19.79-16.54,54.35-25.4,81.23Z"/><path class="cls-1" d="M196.21,21.27c0-12.11,8.56-20.38,20.38-20.38,12.7,0,20.09,8.56,20.09,20.38,0,12.11-8,20.38-20.38,20.38C204.18,41.65,196.21,33.38,196.21,21.27Zm2.07,42.24c0-1.48.88-2.07,2.36-2.07H232c1.77,0,2.36.3,2.36,2.07v141.2c0,1.77-.59,2.36-2.65,2.36H201.23c-2.07,0-2.95-.88-2.95-2.66Z"/></g></g></svg>